<?xml version="1.0" encoding="UTF-8"?>
<svg id="Layer_2" data-name="Layer 2" xmlns="http://www.w3.org/2000/svg" viewBox="0 0 93.92 109.89">
  <defs>
    <style>
      .cls-1 {
        fill: #fff;
      }
    </style>
  </defs>
  <g id="Layer_1-2" data-name="Layer 1">
    <g>
      <path class="cls-1" d="M93.92,50.99v42.49h-11.03v-22.16c-.07-.02-.13-.04-.2-.06-.12.19-.24.37-.35.56-3.37,5.65-6.74,11.29-10.1,16.95-.25.42-.49.6-.99.58-1.33-.04-2.66-.04-3.98,0-.58.02-.91-.15-1.23-.67-3.27-5.39-6.58-10.77-9.87-16.15-.13-.21-.27-.41-.5-.77v21.74h-11.17v-42.52h.75c2.81,0,5.63.02,8.44-.02.62,0,.91.22,1.2.71,4.69,7.73,9.41,15.46,14.11,23.18.1.17.21.34.35.58.14-.23.27-.42.39-.62,4.61-7.76,9.23-15.51,13.82-23.28.25-.42.51-.58,1-.57,2.86.03,5.72.01,8.58.01h.79Z"/>
      <path class="cls-1" d="M.07,51.02h12.07v.79c0,7.52-.02,15.03.01,22.55,0,2,.23,3.98,1.06,5.85,1.22,2.74,3.41,3.99,6.32,4.15,1.28.07,2.56,0,3.78-.45,2.66-.97,3.95-3.07,4.48-5.7.27-1.36.4-2.76.41-4.14.04-7.4.02-14.81.02-22.21v-.82h11.85c.01.22.03.43.03.65,0,8.01.05,16.02-.02,24.04-.03,4.1-.99,8-3.41,11.41-2.49,3.5-5.94,5.61-10.09,6.57-4.97,1.14-9.94,1.11-14.79-.54-6.08-2.07-9.74-6.39-11.08-12.61-.44-2.07-.62-4.22-.64-6.34-.07-7.49-.03-14.99-.03-22.48,0-.22.02-.44.03-.68"/>
      <path class="cls-1" d="M0,39.62c1.33-3,2.64-5.94,3.93-8.83,1.54.74,3.02,1.54,4.56,2.17,2.97,1.22,6.08,1.86,9.29,1.92,1.66.03,3.32-.08,4.91-.65,1.73-.62,2.49-1.85,2.15-3.45-.22-1.05-.97-1.69-1.91-2.01-1.66-.58-3.36-1.09-5.05-1.56-3.03-.84-6.1-1.56-9.11-2.47-2.35-.71-4.29-2.15-5.87-4.03-1.75-2.1-2.25-4.6-2.14-7.25C1.04,7.2,4.67,3.52,10.23,1.44,13.73.14,17.39-.11,21.1.04c3.52.15,6.95.71,10.25,1.94,1.27.47,2.5,1.08,3.8,1.66-1.28,3.08-2.51,6.05-3.75,9.03-1.2-.53-2.33-1.05-3.48-1.53-2.55-1.06-5.22-1.63-7.97-1.7-1.61-.04-3.24.04-4.77.65-1.22.49-2.17,1.25-2.4,2.67-.18,1.14.18,2.17,1.26,2.64,1.44.64,2.96,1.13,4.48,1.56,3.42.95,6.9,1.69,10.28,2.76,2.99.95,5.5,2.76,6.93,5.65,2.23,4.51,1.27,10.72-3.05,14.41-2.64,2.26-5.74,3.53-9.15,4.07-7.04,1.12-13.84.27-20.41-2.47-.68-.28-1.32-.67-1.97-1.02-.37-.2-.72-.45-1.16-.72"/>
      <polygon class="cls-1" points="67.68 43.28 67.68 24.91 48.91 24.91 48.91 21.98 67.67 21.98 67.67 3.48 70.75 3.48 70.75 21.96 89.66 21.96 89.66 24.85 70.78 24.85 70.78 43.28 67.68 43.28"/>
      <path class="cls-1" d="M8.83,107.06H3.11l-1.23,2.74H.74l4.69-10.27h1.07l4.69,10.27h-1.14l-1.23-2.74ZM8.43,106.18l-2.46-5.52-2.46,5.52h4.93Z"/>
      <path class="cls-1" d="M19.92,109.8l-2.35-3.3c-.26.03-.54.04-.82.04h-2.76v3.26h-1.09v-10.27h3.84c1.31,0,2.34.31,3.08.94.74.63,1.11,1.49,1.11,2.58,0,.8-.2,1.48-.61,2.03-.41.55-.99.95-1.74,1.2l2.51,3.52h-1.19ZM19.05,104.95c.54-.45.81-1.08.81-1.89s-.27-1.47-.81-1.91c-.54-.44-1.32-.67-2.33-.67h-2.73v5.15h2.73c1.02,0,1.79-.22,2.33-.67"/>
      <path class="cls-1" d="M25.22,109.21c-.82-.45-1.46-1.07-1.92-1.87-.46-.8-.7-1.69-.7-2.68s.23-1.88.7-2.68c.46-.8,1.11-1.42,1.93-1.87.82-.45,1.74-.67,2.76-.67.76,0,1.47.13,2.11.38.65.25,1.19.63,1.64,1.11l-.69.69c-.8-.81-1.81-1.22-3.04-1.22-.81,0-1.55.19-2.21.56-.67.37-1.19.88-1.56,1.53-.38.65-.56,1.37-.56,2.17s.19,1.53.56,2.17c.38.65.9,1.15,1.56,1.53.66.37,1.4.56,2.21.56,1.23,0,2.24-.41,3.04-1.23l.69.69c-.45.49-1,.86-1.65,1.12-.65.26-1.36.39-2.12.39-1.02,0-1.93-.22-2.75-.67"/>
      <polygon class="cls-1" points="42.64 99.53 42.64 109.8 41.57 109.8 41.57 105.06 35.14 105.06 35.14 109.8 34.06 109.8 34.06 99.53 35.14 99.53 35.14 104.11 41.57 104.11 41.57 99.53 42.64 99.53"/>
      <rect class="cls-1" x="45.98" y="99.53" width="1.09" height="10.27"/>
      <polygon class="cls-1" points="52.4 100.47 48.8 100.47 48.8 99.53 57.1 99.53 57.1 100.47 53.49 100.47 53.49 109.8 52.4 109.8 52.4 100.47"/>
      <polygon class="cls-1" points="66.09 108.86 66.09 109.8 58.83 109.8 58.83 99.53 65.87 99.53 65.87 100.47 59.91 100.47 59.91 104.12 65.22 104.12 65.22 105.05 59.91 105.05 59.91 108.86 66.09 108.86"/>
      <path class="cls-1" d="M70.29,109.21c-.82-.45-1.46-1.07-1.92-1.87-.46-.8-.7-1.69-.7-2.68s.23-1.88.7-2.68c.46-.8,1.11-1.42,1.93-1.87.82-.45,1.74-.67,2.76-.67.76,0,1.47.13,2.11.38.65.25,1.19.63,1.64,1.11l-.69.69c-.8-.81-1.81-1.22-3.04-1.22-.81,0-1.55.19-2.21.56-.67.37-1.19.88-1.56,1.53-.38.65-.56,1.37-.56,2.17s.19,1.53.56,2.17c.38.65.9,1.15,1.56,1.53.66.37,1.4.56,2.21.56,1.23,0,2.24-.41,3.04-1.23l.69.69c-.45.49-1,.86-1.65,1.12-.65.26-1.36.39-2.12.39-1.02,0-1.93-.22-2.75-.67"/>
      <polygon class="cls-1" points="80.99 100.47 77.38 100.47 77.38 99.53 85.69 99.53 85.69 100.47 82.08 100.47 82.08 109.8 80.99 109.8 80.99 100.47"/>
      <path class="cls-1" d="M87.89,109.52c-.7-.24-1.24-.57-1.62-.97l.43-.84c.37.37.87.67,1.48.9.62.23,1.25.34,1.91.34.92,0,1.61-.17,2.07-.51.46-.34.69-.77.69-1.31,0-.41-.12-.74-.37-.98-.25-.24-.56-.43-.92-.56-.36-.13-.87-.28-1.51-.43-.77-.2-1.39-.38-1.85-.56-.46-.18-.85-.46-1.18-.83-.33-.37-.49-.88-.49-1.51,0-.52.14-.99.41-1.42.27-.43.69-.77,1.26-1.02.57-.25,1.27-.38,2.11-.38.59,0,1.16.08,1.72.24.56.16,1.05.38,1.46.67l-.37.87c-.43-.28-.89-.5-1.38-.64-.49-.14-.97-.21-1.44-.21-.9,0-1.58.17-2.03.52-.45.35-.68.79-.68,1.34,0,.41.12.74.37.99.25.25.56.44.94.57.38.13.88.28,1.52.43.75.19,1.36.37,1.83.55.46.18.86.45,1.18.82.32.37.48.86.48,1.49,0,.52-.14.99-.42,1.42-.28.43-.71.76-1.28,1.01-.58.25-1.29.37-2.13.37-.76,0-1.49-.12-2.19-.37"/>
    </g>
  </g>
</svg>