<?xml version="1.0" encoding="UTF-8"?>
<svg id="Layer_2" data-name="Layer 2" xmlns="http://www.w3.org/2000/svg" viewBox="0 0 248.38 103.23">
  <defs>
    <style>
      .cls-1 {
        fill: #fff;
      }
    </style>
  </defs>
  <g id="Layer_1-2" data-name="Layer 1">
    <g>
      <g>
        <path class="cls-1" d="M83.95,45.63v37.98h-9.86v-19.81c-.06-.02-.12-.03-.18-.05-.11.17-.21.33-.32.5-3.01,5.05-6.03,10.1-9.02,15.15-.22.37-.44.53-.89.52-1.19-.04-2.38-.04-3.56,0-.52.02-.82-.13-1.1-.6-2.92-4.82-5.88-9.63-8.82-14.43-.11-.19-.24-.37-.45-.69v19.43h-9.99v-38h.67c2.52,0,5.03.02,7.55-.02.55,0,.81.2,1.08.63,4.2,6.91,8.41,13.82,12.62,20.72.09.15.19.31.32.52.13-.21.24-.38.34-.55,4.12-6.93,8.25-13.87,12.36-20.81.22-.37.45-.52.89-.51,2.56.02,5.11.01,7.67.01h.71Z"/>
        <path class="cls-1" d="M.06,45.65h10.79v.71c0,6.72-.02,13.44.01,20.16,0,1.79.21,3.56.95,5.23,1.09,2.45,3.05,3.57,5.65,3.71,1.15.06,2.29,0,3.38-.4,2.38-.87,3.53-2.75,4-5.09.24-1.21.36-2.47.37-3.7.03-6.62.02-13.24.02-19.86v-.74h10.59c0,.19.03.39.03.58,0,7.16.04,14.32-.02,21.49-.03,3.67-.88,7.15-3.05,10.2-2.23,3.13-5.31,5.02-9.02,5.87-4.44,1.02-8.88.99-13.22-.48-5.44-1.85-8.71-5.71-9.9-11.27-.4-1.85-.55-3.78-.57-5.67-.07-6.7-.03-13.4-.02-20.1,0-.2.02-.39.03-.61"/>
        <path class="cls-1" d="M0,35.46c1.19-2.68,2.36-5.31,3.51-7.89,1.38.66,2.7,1.37,4.08,1.94,2.65,1.09,5.43,1.67,8.3,1.72,1.48.03,2.97-.07,4.39-.58,1.54-.55,2.23-1.65,1.93-3.08-.2-.94-.86-1.51-1.7-1.8-1.49-.52-3-.97-4.52-1.39-2.71-.75-5.45-1.4-8.15-2.21-2.1-.64-3.84-1.92-5.24-3.61-1.56-1.88-2.01-4.12-1.91-6.48C.93,6.48,4.18,3.19,9.15,1.33,12.27.16,15.54-.06,18.86.08c3.14.13,6.21.64,9.16,1.73,1.14.42,2.23.97,3.39,1.48-1.14,2.76-2.24,5.41-3.35,8.07-1.07-.47-2.08-.94-3.11-1.37-2.28-.95-4.66-1.45-7.12-1.52-1.44-.04-2.9.03-4.26.58-1.09.44-1.94,1.12-2.14,2.38-.16,1.02.16,1.94,1.13,2.36,1.29.57,2.65,1.01,4.01,1.39,3.06.85,6.17,1.51,9.19,2.47,2.67.85,4.92,2.47,6.19,5.05,1.99,4.03,1.13,9.58-2.73,12.88-2.36,2.02-5.13,3.16-8.18,3.64-6.29,1-12.37.24-18.25-2.21-.61-.25-1.18-.6-1.76-.91-.33-.18-.65-.4-1.03-.64"/>
        <polygon class="cls-1" points="60.49 38.73 60.49 22.31 43.72 22.31 43.72 19.69 60.49 19.69 60.49 3.16 63.24 3.16 63.24 19.68 80.15 19.68 80.15 22.25 63.27 22.25 63.27 38.73 60.49 38.73"/>
        <path class="cls-1" d="M7.89,95.74H2.78l-1.1,2.45H.67l4.2-9.18h.96l4.2,9.18h-1.02l-1.1-2.45ZM7.54,94.95l-2.2-4.93-2.2,4.93h4.41Z"/>
        <path class="cls-1" d="M17.8,98.19l-2.1-2.95c-.24.03-.48.04-.73.04h-2.47v2.91h-.97v-9.18h3.44c1.17,0,2.09.28,2.75.84.66.56,1,1.33,1,2.31,0,.72-.18,1.32-.54,1.82-.36.49-.88.85-1.55,1.07l2.24,3.15h-1.06ZM17.03,93.85c.48-.4.72-.97.72-1.69s-.24-1.31-.72-1.71c-.48-.4-1.18-.6-2.08-.6h-2.44v4.6h2.44c.91,0,1.6-.2,2.08-.6"/>
        <path class="cls-1" d="M22.54,97.67c-.73-.4-1.3-.96-1.72-1.67-.42-.71-.62-1.51-.62-2.39s.21-1.68.62-2.39c.42-.71.99-1.27,1.72-1.67.73-.4,1.56-.6,2.46-.6.68,0,1.31.11,1.89.34.58.23,1.07.56,1.47,1l-.62.62c-.72-.73-1.62-1.09-2.71-1.09-.73,0-1.39.17-1.98.5-.59.33-1.06.79-1.4,1.36-.34.58-.5,1.22-.5,1.94s.17,1.36.5,1.94c.34.58.8,1.03,1.4,1.36.59.33,1.25.5,1.98.5,1.1,0,2.01-.37,2.71-1.1l.62.62c-.4.44-.89.77-1.48,1-.58.23-1.21.35-1.89.35-.91,0-1.73-.2-2.46-.6"/>
        <polygon class="cls-1" points="38.11 89.01 38.11 98.19 37.15 98.19 37.15 93.96 31.41 93.96 31.41 98.19 30.44 98.19 30.44 89.01 31.41 89.01 31.41 93.1 37.15 93.1 37.15 89.01 38.11 89.01"/>
        <rect class="cls-1" x="41.1" y="89.01" width=".97" height="9.18"/>
        <polygon class="cls-1" points="46.84 89.85 43.62 89.85 43.62 89.01 51.04 89.01 51.04 89.85 47.81 89.85 47.81 98.19 46.84 98.19 46.84 89.85"/>
        <polygon class="cls-1" points="59.08 97.35 59.08 98.19 52.59 98.19 52.59 89.01 58.88 89.01 58.88 89.85 53.56 89.85 53.56 93.12 58.3 93.12 58.3 93.94 53.56 93.94 53.56 97.35 59.08 97.35"/>
        <path class="cls-1" d="M62.83,97.67c-.73-.4-1.3-.96-1.72-1.67-.42-.71-.62-1.51-.62-2.39s.21-1.68.62-2.39c.42-.71.99-1.27,1.72-1.67.73-.4,1.56-.6,2.46-.6.68,0,1.31.11,1.89.34.58.23,1.07.56,1.47,1l-.62.62c-.72-.73-1.62-1.09-2.71-1.09-.73,0-1.39.17-1.98.5-.59.33-1.06.79-1.4,1.36-.34.58-.5,1.22-.5,1.94s.17,1.36.5,1.94c.34.58.8,1.03,1.4,1.36.59.33,1.25.5,1.98.5,1.1,0,2.01-.37,2.71-1.1l.62.62c-.4.44-.89.77-1.48,1-.58.23-1.21.35-1.89.35-.91,0-1.73-.2-2.46-.6"/>
        <polygon class="cls-1" points="72.4 89.85 69.17 89.85 69.17 89.01 76.59 89.01 76.59 89.85 73.37 89.85 73.37 98.19 72.4 98.19 72.4 89.85"/>
        <path class="cls-1" d="M78.57,97.94c-.63-.22-1.11-.51-1.45-.87l.38-.75c.33.33.77.6,1.32.81.55.21,1.12.31,1.7.31.82,0,1.44-.15,1.85-.45.41-.3.62-.69.62-1.17,0-.37-.11-.66-.33-.88-.22-.22-.5-.39-.82-.5-.32-.12-.77-.25-1.35-.39-.69-.17-1.24-.34-1.65-.5-.41-.16-.76-.41-1.06-.74-.29-.33-.44-.78-.44-1.35,0-.46.12-.89.37-1.27.24-.38.62-.68,1.13-.91.51-.23,1.14-.34,1.89-.34.52,0,1.04.07,1.54.22.5.14.94.34,1.3.6l-.33.77c-.38-.25-.8-.44-1.23-.57-.44-.13-.87-.19-1.28-.19-.8,0-1.41.16-1.82.47-.41.31-.61.71-.61,1.2,0,.37.11.66.33.89.22.22.5.39.84.51.34.12.79.25,1.36.39.67.17,1.22.33,1.63.49.42.16.77.41,1.06.73.29.33.43.77.43,1.33,0,.46-.12.89-.37,1.27-.25.38-.63.68-1.15.9-.52.22-1.15.33-1.9.33-.68,0-1.34-.11-1.96-.33"/>
        <rect class="cls-1" x="92.95" width=".98" height="98.31"/>
      </g>
      <g>
        <path class="cls-1" d="M115.33,51.35l-1.36-4.29h-6.33l-1.39,4.29h-3.78l6.26-18.02h4.43l6.26,18.02h-4.08ZM110.71,37.08l-2.26,7.07h4.72l-2.23-7.07h-.22Z"/>
        <path class="cls-1" d="M120.85,51.35v-13.77h3.52v2.2h.22c.18-.7.6-1.28,1.25-1.74.65-.46,1.41-.69,2.28-.69.62,0,1.1.06,1.42.17v3.31c-.38-.15-.96-.23-1.72-.23-1.01,0-1.82.28-2.43.84s-.92,1.31-.92,2.27v7.63h-3.63Z"/>
        <path class="cls-1" d="M142.57,42.43h-3.4c-.12-.67-.42-1.21-.89-1.59-.47-.39-1.08-.58-1.84-.58-.98,0-1.74.36-2.27,1.07-.53.72-.79,1.75-.79,3.1s.26,2.41.79,3.14c.53.73,1.28,1.09,2.27,1.09.75,0,1.36-.18,1.83-.54s.77-.87.91-1.55h3.4c-.15,1.56-.77,2.79-1.85,3.7-1.08.91-2.51,1.37-4.28,1.37-2.15,0-3.81-.63-4.98-1.88-1.17-1.25-1.75-3.03-1.75-5.34s.58-4.05,1.75-5.29,2.83-1.86,4.98-1.86c1.8,0,3.23.46,4.3,1.39,1.07.92,1.68,2.18,1.83,3.77Z"/>
        <path class="cls-1" d="M144.25,51.35v-19.03h3.57v7.52h.22c.32-.79.85-1.41,1.57-1.85.72-.45,1.58-.67,2.59-.67,1.49,0,2.65.45,3.48,1.35.83.9,1.24,2.17,1.24,3.82v8.86h-3.63v-8c0-.95-.22-1.67-.65-2.16s-1.06-.74-1.89-.74c-.9,0-1.6.27-2.11.82-.51.55-.76,1.27-.76,2.18v7.9h-3.63Z"/>
        <path class="cls-1" d="M161.01,35.65c-.65,0-1.17-.17-1.56-.51s-.59-.78-.59-1.32.2-.99.59-1.33.91-.51,1.56-.51,1.17.17,1.56.51.59.78.59,1.33-.2.98-.59,1.32-.91.51-1.55.51ZM159.19,51.35v-13.77h3.63v13.77h-3.63Z"/>
        <path class="cls-1" d="M166.25,34.31h3.63v3.41h2.86v2.86h-2.86v6.19c0,.6.14,1.04.43,1.32.29.28.74.42,1.35.42.41,0,.77-.02,1.07-.05v2.77c-.56.11-1.17.16-1.82.16-1.67,0-2.87-.29-3.59-.87-.72-.58-1.08-1.55-1.08-2.9v-7.05h-2.15v-2.86h2.15v-3.41Z"/>
        <path class="cls-1" d="M183.29,47.43h3.38c-.27,1.31-.97,2.34-2.09,3.09-1.12.75-2.52,1.13-4.2,1.13-2.1,0-3.73-.63-4.91-1.88-1.17-1.25-1.76-3-1.76-5.24s.59-4.01,1.77-5.31c1.18-1.3,2.8-1.95,4.84-1.95s3.61.61,4.75,1.84,1.7,2.93,1.7,5.12v1.11h-9.45v.19c.02,1.02.32,1.83.88,2.43.56.6,1.32.89,2.27.89.72,0,1.31-.12,1.8-.37.48-.25.82-.6,1.01-1.06ZM180.34,40.06c-.84,0-1.53.27-2.08.81-.55.54-.85,1.26-.92,2.15h5.87c-.04-.92-.32-1.64-.83-2.17-.51-.53-1.19-.79-2.04-.79Z"/>
        <path class="cls-1" d="M200.66,42.43h-3.4c-.12-.67-.42-1.21-.89-1.59-.47-.39-1.08-.58-1.84-.58-.98,0-1.74.36-2.27,1.07-.53.72-.79,1.75-.79,3.1s.26,2.41.79,3.14c.53.73,1.28,1.09,2.27,1.09.75,0,1.36-.18,1.83-.54s.77-.87.91-1.55h3.4c-.15,1.56-.77,2.79-1.85,3.7-1.08.91-2.51,1.37-4.28,1.37-2.15,0-3.81-.63-4.98-1.88-1.17-1.25-1.75-3.03-1.75-5.34s.58-4.05,1.75-5.29,2.83-1.86,4.98-1.86c1.8,0,3.23.46,4.3,1.39,1.07.92,1.68,2.18,1.83,3.77Z"/>
        <path class="cls-1" d="M203.38,34.31h3.63v3.41h2.86v2.86h-2.86v6.19c0,.6.14,1.04.43,1.32.29.28.74.42,1.35.42.41,0,.77-.02,1.07-.05v2.77c-.56.11-1.17.16-1.82.16-1.67,0-2.87-.29-3.59-.87-.72-.58-1.08-1.55-1.08-2.9v-7.05h-2.15v-2.86h2.15v-3.41Z"/>
        <path class="cls-1" d="M224.08,37.58v13.77h-3.52v-2.21h-.23c-.68,1.67-2.02,2.51-4.02,2.51-1.49,0-2.67-.45-3.53-1.35-.86-.9-1.29-2.15-1.29-3.74v-8.98h3.63v8.04c0,1.91.84,2.87,2.53,2.87.89,0,1.58-.26,2.06-.79.48-.52.72-1.25.72-2.18v-7.94h3.63Z"/>
        <path class="cls-1" d="M226.44,51.35v-13.77h3.52v2.2h.22c.18-.7.6-1.28,1.25-1.74.65-.46,1.41-.69,2.28-.69.62,0,1.1.06,1.42.17v3.31c-.38-.15-.96-.23-1.72-.23-1.01,0-1.82.28-2.43.84s-.92,1.31-.92,2.27v7.63h-3.63Z"/>
        <path class="cls-1" d="M244.88,47.43h3.38c-.27,1.31-.97,2.34-2.09,3.09-1.12.75-2.52,1.13-4.2,1.13-2.1,0-3.73-.63-4.91-1.88-1.17-1.25-1.76-3-1.76-5.24s.59-4.01,1.77-5.31c1.18-1.3,2.8-1.95,4.84-1.95s3.61.61,4.75,1.84,1.7,2.93,1.7,5.12v1.11h-9.45v.19c.02,1.02.32,1.83.88,2.43.56.6,1.32.89,2.27.89.72,0,1.31-.12,1.8-.37.48-.25.82-.6,1.01-1.06ZM241.93,40.06c-.84,0-1.53.27-2.08.81-.55.54-.85,1.26-.92,2.15h5.87c-.04-.92-.32-1.64-.83-2.17-.51-.53-1.19-.79-2.04-.79Z"/>
        <path class="cls-1" d="M107.53,74.79h-3.77v-18.02h3.77v18.02Z"/>
        <path class="cls-1" d="M110.26,74.79v-13.77h3.52v2.21h.22c.32-.79.83-1.41,1.53-1.85.69-.44,1.54-.66,2.54-.66,1.52,0,2.69.45,3.5,1.34.81.9,1.21,2.17,1.21,3.83v8.9h-3.63v-8.04c0-1.93-.84-2.9-2.53-2.9-.84,0-1.5.27-1.99.82-.49.55-.73,1.27-.73,2.18v7.94h-3.63Z"/>
        <path class="cls-1" d="M126.06,57.75h3.63v3.41h2.86v2.86h-2.86v6.19c0,.6.14,1.04.43,1.32.29.28.74.42,1.35.42.41,0,.77-.02,1.07-.05v2.77c-.56.11-1.17.16-1.82.16-1.67,0-2.87-.29-3.59-.87-.72-.58-1.08-1.55-1.08-2.9v-7.05h-2.15v-2.86h2.15v-3.41Z"/>
        <path class="cls-1" d="M143.1,70.87h3.38c-.27,1.31-.97,2.34-2.09,3.09-1.12.75-2.52,1.13-4.2,1.13-2.1,0-3.73-.63-4.91-1.88-1.17-1.25-1.76-3-1.76-5.24s.59-4.01,1.77-5.31c1.18-1.3,2.8-1.95,4.84-1.95s3.61.61,4.75,1.84,1.7,2.93,1.7,5.12v1.11h-9.45v.19c.02,1.02.32,1.83.88,2.43.56.6,1.32.89,2.27.89.72,0,1.31-.12,1.8-.37.48-.25.82-.6,1.01-1.06ZM140.15,63.5c-.84,0-1.53.27-2.08.81-.55.54-.85,1.26-.92,2.15h5.87c-.04-.92-.32-1.64-.83-2.17-.51-.53-1.19-.79-2.04-.79Z"/>
        <path class="cls-1" d="M148.29,74.79v-13.77h3.52v2.2h.22c.18-.7.6-1.28,1.25-1.74.65-.46,1.41-.69,2.28-.69.62,0,1.1.06,1.42.17v3.31c-.38-.15-.96-.23-1.72-.23-1.01,0-1.82.28-2.43.84s-.92,1.31-.92,2.27v7.63h-3.63Z"/>
        <path class="cls-1" d="M160.11,59.09c-.65,0-1.17-.17-1.56-.51s-.59-.78-.59-1.32.2-.99.59-1.33.91-.51,1.56-.51,1.17.17,1.56.51.59.78.59,1.33-.2.98-.59,1.32-.91.51-1.55.51ZM158.28,74.79v-13.77h3.63v13.77h-3.63Z"/>
        <path class="cls-1" d="M175.39,73.18c-1.2,1.27-2.86,1.91-4.98,1.91s-3.77-.64-4.98-1.91c-1.2-1.27-1.8-3.03-1.8-5.28s.61-3.98,1.82-5.26c1.21-1.28,2.87-1.92,4.96-1.92s3.75.64,4.96,1.92c1.21,1.28,1.82,3.03,1.82,5.26s-.6,4.01-1.8,5.28ZM170.42,72.12c.97,0,1.71-.37,2.25-1.1s.8-1.77.8-3.12-.27-2.36-.81-3.1c-.54-.74-1.28-1.11-2.24-1.11s-1.71.37-2.25,1.11c-.53.74-.8,1.77-.8,3.1s.26,2.38.79,3.12c.53.74,1.28,1.1,2.25,1.1Z"/>
        <path class="cls-1" d="M178.88,74.79v-13.77h3.52v2.2h.22c.18-.7.6-1.28,1.25-1.74.65-.46,1.41-.69,2.28-.69.62,0,1.1.06,1.42.17v3.31c-.38-.15-.96-.23-1.72-.23-1.01,0-1.82.28-2.43.84s-.92,1.31-.92,2.27v7.63h-3.63Z"/>
        <path class="cls-1" d="M111.9,98.23h-3.77v-14.8h-5.41v-3.22h14.58v3.22h-5.41v14.8Z"/>
        <path class="cls-1" d="M130.15,84.46v13.77h-3.52v-2.21h-.23c-.68,1.67-2.02,2.51-4.02,2.51-1.49,0-2.67-.45-3.53-1.35-.86-.9-1.29-2.15-1.29-3.74v-8.98h3.63v8.04c0,1.91.84,2.87,2.53,2.87.89,0,1.58-.26,2.06-.79.48-.52.72-1.25.72-2.18v-7.94h3.63Z"/>
        <path class="cls-1" d="M132.52,98.23v-13.77h3.52v2.2h.22c.18-.7.6-1.28,1.25-1.74.65-.46,1.41-.69,2.28-.69.62,0,1.1.06,1.42.17v3.31c-.38-.15-.96-.23-1.72-.23-1.01,0-1.82.28-2.43.84s-.92,1.31-.92,2.27v7.63h-3.63Z"/>
        <path class="cls-1" d="M142.49,98.23v-13.77h3.52v2.21h.22c.32-.79.83-1.41,1.53-1.85.69-.44,1.54-.66,2.54-.66,1.52,0,2.69.45,3.5,1.34.81.9,1.21,2.17,1.21,3.83v8.9h-3.63v-8.04c0-1.93-.84-2.9-2.53-2.9-.84,0-1.5.27-1.99.82-.49.55-.73,1.27-.73,2.18v7.94h-3.63Z"/>
        <path class="cls-1" d="M161.24,89.84l4.61-5.38h4.13l-5.24,5.91,5.61,7.87h-4.31l-4.02-5.59-1,1.02v4.57h-3.63v-19.03h3.63v10.64h.22Z"/>
        <path class="cls-1" d="M179.45,94.31h3.38c-.27,1.31-.97,2.34-2.09,3.09-1.12.75-2.52,1.13-4.2,1.13-2.1,0-3.73-.63-4.91-1.88-1.17-1.25-1.76-3-1.76-5.24s.59-4.01,1.77-5.31c1.18-1.3,2.8-1.95,4.84-1.95s3.61.61,4.75,1.84,1.7,2.93,1.7,5.12v1.11h-9.45v.19c.02,1.02.32,1.83.88,2.43.56.6,1.32.89,2.27.89.72,0,1.31-.12,1.8-.37.48-.25.82-.6,1.01-1.06ZM176.5,86.94c-.84,0-1.53.27-2.08.81-.55.54-.85,1.26-.92,2.15h5.87c-.04-.92-.32-1.64-.83-2.17-.51-.53-1.19-.79-2.04-.79Z"/>
        <path class="cls-1" d="M185.97,103.23c-.77,0-1.24-.01-1.39-.04v-2.92c.08.02.36.02.82.02.69,0,1.23-.12,1.62-.36.39-.24.66-.61.81-1.13l.12-.5-4.83-13.86h4.01l2.9,10.44h.23l2.9-10.44h3.85l-4.74,13.98c-.58,1.76-1.35,3-2.29,3.72-.94.72-2.28,1.07-4,1.07Z"/>
      </g>
    </g>
  </g>
</svg>